<svg xmlns="http://www.w3.org/2000/svg" viewBox="0 0 512 512">
	<path d="M432.121 161.699v276.247H80.433V161.699H47.151v281.794c0 15.293 12.442 27.736 27.736 27.736h362.782c15.293 0 27.736-12.442 27.736-27.736V161.699h-33.284z"/>
	<path d="M495.359 40.771H16.641C7.45 40.771 0 48.221 0 57.413v104.286c0 9.192 7.45 16.641 16.641 16.641h478.717c9.192 0 16.641-7.45 16.641-16.641V57.413c.001-9.192-7.449-16.642-16.64-16.642zm-16.642 104.286H33.283V74.054h445.434v71.003zM330.609 236.03H181.946c-9.192 0-16.641 7.45-16.641 16.641 0 9.192 7.45 16.641 16.641 16.641h148.663c9.192 0 16.641-7.444 16.641-16.641 0-9.191-7.45-16.641-16.641-16.641z"/>
</svg>
