<svg viewBox="0 0 24 24"
  xmlns="http://www.w3.org/2000/svg">
  <path d="M21.5 24h-19c-.827 0-1.5-.673-1.5-1.5v-13a.5.5 0 01.5-.5h21a.5.5 0 01.5.5v13c0 .827-.673 1.5-1.5 1.5zM2 10v12.5a.5.5 0 00.5.5h19a.5.5 0 00.5-.5V10z"/>
  <path d="M15.5 15h-7c-.827 0-1.5-.673-1.5-1.5S7.673 12 8.5 12h7c.827 0 1.5.673 1.5 1.5s-.673 1.5-1.5 1.5zm-7-2a.5.5 0 000 1h7a.5.5 0 000-1zM23.5 10H.5a.5.5 0 01-.5-.5v-5A.5.5 0 01.5 4h23a.5.5 0 01.5.5v5a.5.5 0 01-.5.5zM1 9h22V5H1z"/>
  <path d="M23.5 5a.498.498 0 01-.4-.2L20.25 1H3.75L.9 4.8a.5.5 0 11-.8-.6l3-4a.5.5 0 01.4-.2h17a.5.5 0 01.4.2l3 4a.5.5 0 01-.4.8z"/>
</svg>
