<svg xmlns="http://www.w3.org/2000/svg" viewBox="0 0 512 501">
	<path d="M256 0C114.6 0 0 115 0 256.8c0 113.5 73.3 209.7 175.1 243.7 12.8 2.4 17.5-5.6 17.5-12.4 0-6.1-.2-22.3-.4-43.7C121 460 106 410.1 106 410.1c-11.6-29.7-28.4-37.6-28.4-37.6-23.3-15.9 1.7-15.6 1.7-15.6 25.7 1.8 39.2 26.5 39.2 26.5 22.8 39.2 59.9 27.9 74.5 21.3 2.3-16.6 8.9-27.9 16.3-34.3-56.8-6.5-116.6-28.5-116.6-126.9 0-28 10-51 26.4-68.9-2.7-6.5-11.4-32.6 2.5-68 0 0 21.5-6.9 70.4 26.3 20.4-5.7 42.3-8.5 64.1-8.6 21.7.1 43.6 2.9 64.1 8.7 48.9-33.2 70.3-26.3 70.3-26.3 14 35.4 5.2 61.5 2.6 68 16.4 18 26.3 40.9 26.3 68.9 0 98.7-59.8 120.4-116.9 126.7 9.2 7.9 17.4 23.6 17.4 47.6 0 34.3-.3 62-.3 70.4 0 6.9 4.6 14.9 17.6 12.3C438.7 466.5 512 370.3 512 256.8 512 115 397.4 0 256 0z"/>
</svg>
