<svg xmlns="http://www.w3.org/2000/svg" viewBox="0 0 511 489.7">
  <path d="M114.4 489.7c-5.6 0-11.2-1.7-15.9-5.2-8.8-6.4-13-17.4-10.6-28l32.9-144.8L9.3 213.9c-8.2-7.2-11.3-18.5-8-28.9 3.4-10.3 12.5-17.7 23.4-18.7L172.2 153l58.3-136.5c4.3-10 14.1-16.5 25-16.5s20.7 6.5 25 16.5L338.8 153l147.5 13.4c10.9 1 20 8.3 23.4 18.7 3.4 10.3.3 21.7-7.9 28.9l-111.5 97.8 32.9 144.8c2.4 10.6-1.7 21.7-10.6 28-8.8 6.4-20.6 6.9-29.9 1.3l-127.2-76L128.3 486c-4.3 2.4-9.1 3.7-13.9 3.7zM255.5 377c4.8 0 9.6 1.3 13.9 3.9l120 71.8-31-136.7c-2.2-9.7 1.1-19.9 8.6-26.5l105.3-92.3L333 184.6c-10-.9-18.7-7.2-22.6-16.5l-55-128.8-55 128.8c-3.9 9.2-12.5 15.5-22.5 16.4L38.7 197.2 144 289.5c7.5 6.6 10.8 16.7 8.6 26.5l-31 136.7 120-71.8c4.3-2.6 9.1-3.9 13.9-3.9zm-84.4-221.4zm168.8 0z"/>
</svg>
